# xmcd
#
# Track frame offsets:
#	150
#	19355
#	37262
#	62679
#	79271
#
# Disc length: 1423 seconds
#
# Revision: 0
# Processed by: cddbd v1.5.2PL0 Copyright (c) Steve Scherf et al.
# Submitted via: EasyCDDAExtractor 9.0.0.1
#
DISCID=40058d05
DTITLE=Vucaque
DYEAR=2013
DGENRE=Blues
TTITLE0=Troubling Mamma
TTITLE1=Down by the River
TTITLE2=And now we're all...
TTITLE3=Some Loving
TTITLE4=Sapphire
EXTD=
EXTT0=
EXTT1=
EXTT2=
EXTT3=
EXTT4=
PLAYORDER=
